<svg height="512" viewBox="0 0 60 60" width="512" xmlns="http://www.w3.org/2000/svg"><g id="013---King" transform="translate(0 -1)"><path id="Shape" d="m56 53.369-14.713-2.929c3.03-4.136 3.813-9.772 2.156-16.614v-.012-.03c2.1824925-1.0735407 3.7842693-3.0503569 4.382-5.408.1152348-.8484884.1736982-1.7037232.175-2.56 1.2434806-.4363711 2.0538656-1.6363044 1.994183-2.9527776s-.9753186-2.438157-2.253183-2.7602224l2.059-3.303c1.5581454.4946835 3.2604333-.0106428 4.2962981-1.2753612 1.0358648-1.2647185 1.1959317-3.0331973.4039829-4.4633532-.7919488-1.43015582-2.3758403-2.23291769-3.9974846-2.02604045-1.6216444.20687724-2.953266 1.38157845-3.3607964 2.96475485h-4.142v-2.142c2.0856072-.5365396 3.3697255-2.63062236 2.9021988-4.73277626s-2.5181601-3.45457572-4.6345777-3.05656969-3.5356742 2.40296314-3.2076211 4.53134595l-2.9 1.246-1.517-1.213c.7544383-1.67618409.2677641-3.65083651-1.1791826-4.7844658-1.4469467-1.1336293-3.4806881-1.1336293-4.9276348 0-1.4469467 1.13362929-1.9336209 3.10828171-1.1791826 4.7844658l-1.514 1.211-2.903-1.244c.3287674-2.12910731-1.090703-4.13515045-3.2078946-4.53350405-2.1171916-.39835361-4.1686683.95462428-4.6361802 3.05762654-.467512 2.10300225.8175203 4.19770922 2.9040748 4.73387751v2.142h-4.142c-.4075304-1.5831764-1.739152-2.75787761-3.36079637-2.96475485-1.62164438-.20687724-3.20553585.59588463-3.99748466 2.02604045-.7919488 1.4301559-.63188187 3.1986347.40398293 4.4633532 1.0358648 1.2647184 2.73815274 1.7700447 4.2962981 1.2753612l2.061 3.3c-1.2804755.3198301-2.1990938 1.4423563-2.2592955 2.7607964-.06020173 1.3184402.7522953 2.5200113 1.9982955 2.9552036.0032759.8715308.0654174 1.741845.186 2.605.6133257 2.3525238 2.2264348 4.3182949 4.414 5.379-.051 1.034-2.855 9.775 2.14 16.638l-14.74 2.932c-2.32451065.4815778-3.99353865 2.5261371-4 4.9v.73c0 1.1045695.8954305 2 2 2h56c1.1045695 0 2-.8954305 2-2v-.73c-.0067561-2.3739642-1.6755455-4.4186484-4-4.901zm-10.152-25.328c-.3919867 1.4044495-1.2684006 2.6248401-2.474 3.445.016-1.631.489-3.375.751-5.486h1.875c-.0124528.6826408-.0631993 1.3640451-.152 2.041zm5.152-17.041c1.1045695 0 2 .8954305 2 2s-.8954305 2-2 2-2-.8954305-2-2 .8954305-2 2-2zm-9-7c1.1045695 0 2 .8954305 2 2s-.8954305 2-2 2-2-.8954305-2-2 .8954305-2 2-2zm-12-1c1.1045695 0 2 .8954305 2 2s-.8954305 2-2 2-2-.8954305-2-2 .8954305-2 2-2zm-14 3c0-1.1045695.8954305-2 2-2s2 .8954305 2 2-.8954305 2-2 2-2-.8954305-2-2zm-7 9c-1.1045695 0-2-.8954305-2-2s.8954305-2 2-2 2 .8954305 2 2-.8954305 2-2 2zm3 8c0-.5522847.4477153-1 1-1h24c.5522847 0 1-.4477153 1-1s-.4477153-1-1-1h-22.445l-2.655-4.256c.4611359-.491359.7906647-1.0912528.958-1.744h4.142c1.1045695 0 2-.8954305 2-2v-2.142c.8542571-.22307037 1.6104012-.72318055 2.15-1.422l2.9 1.246c.6783116.29285742 1.462954.18664785 2.039-.276l1.523-1.216c1.408706 1.08037767 3.367294 1.08037767 4.776 0l1.518 1.21c.5760685.46337292 1.3612299.56998552 2.04.277l2.9-1.246c.5398487.70141278 1.2975975 1.20341256 2.154 1.427v2.142c0 1.1045695.8954305 2 2 2h4.142c.16849.6531466.4994153 1.2530776.962 1.744l-2.659 4.256h-3.445c-.5522847 0-1 .4477153-1 1s.4477153 1 1 1h5c.5522847 0 1 .4477153 1 1s-.4477153 1-1 1h-34c-.5522847 0-1-.4477153-1-1zm29.444 10.984c-.6018616 2.0758848-2.3403027 3.6230663-4.472 3.98-.8143206.1893948-1.6707616.0239955-2.356-.455-2.7580765-1.9823821-6.4739235-1.9823821-9.232 0-.6852384.4789955-1.5416794.6443948-2.356.455-2.1349485-.3690271-3.8621885-1.9425786-4.428-4.034.227-4.573-.216-4.552-.665-7.93h24.173c-.493 3.727-.866 3.073-.664 7.984zm-27.285-5.9c-.0926063-.6910758-.1456927-1.386874-.159-2.084h1.915c.3453915 1.823461.596061 3.6635949.751 5.513-1.2137181-.8117716-2.1016302-2.0262313-2.507-3.429zm3.848 9.079c1.1556032 1.4134655 2.7645833 2.3836586 4.554 2.746 1.3664566.3198971 2.8044714.0463183 3.958-.753 2.0747204-1.5109724 4.8872796-1.5109724 6.962 0 1.1531306.8002672 2.5915651 1.0739259 3.958.753 1.8088548-.3638307 3.4373851-1.3391127 4.612-2.762.959 6.739-.538 14.375-10.555 17.618-.9727737.3130123-2.0192263.3130123-2.992 0-9.971-3.229-11.457-10.865-10.497-17.602zm-3.007 21.837h-13v-.73c.00365825-1.4241893 1.00527956-2.6507581 2.4-2.939l15.815-3.148c1.080151 1.0626308 2.299631 1.9736244 3.625 2.708-.46 1.464-2.2 4.109-8.84 4.109zm8.079 0c1.164311-.7751184 2.0583633-1.8935576 2.558-3.2 3.527 1.556 4.938 1.669 8.726 0 .4996367 1.3064424 1.393689 2.4248816 2.558 3.2zm34.921 0h-13c-6.634 0-8.377-2.64-8.834-4.1 1.3314147-.7343193 2.5572255-1.645604 3.644-2.709l15.79 3.139c1.3946641.2890163 2.3960465 1.5157097 2.4 2.94z"/><path id="Shape" d="m24.215 44.685c2.571-.273 2.631-1.985 5.785-1.985 1.251011-.0084191 2.4716394.3852528 3.482 1.123.6832248.4738032 1.4736647.7700463 2.3.862.5495233.0579899 1.0420101-.3404767 1.1-.89s-.3404767-1.0420101-.89-1.1c-.4954055-.0547904-.9691755-.2328839-1.378-.518-2.7599081-1.9801203-6.4750919-1.9801203-9.235 0-.4083942.2852267-.8818715.4633394-1.377.518-.5495233.0579899-.9479899.5504767-.89 1.1s.5504767.9479899 1.1.89z"/></g></svg>