<?xml version="1.0" encoding="iso-8859-1"?>
<!-- Generator: Adobe Illustrator 19.0.0, SVG Export Plug-In . SVG Version: 6.00 Build 0)  -->
<svg version="1.1" id="Capa_1" xmlns="http://www.w3.org/2000/svg" xmlns:xlink="http://www.w3.org/1999/xlink" x="0px" y="0px"
	 viewBox="0 0 512.2 512.2" style="enable-background:new 0 0 512.2 512.2;" xml:space="preserve">
<g>
	<g>
		<path d="M276.35,243.3c-9.3-11.3-31.5-11.3-40.8,0c-8.8,10.6-5.7,26.7-3,40.9c1,5.4,2.1,11,2.1,14.7c0,71.7,7.5,85.3,21.3,85.3
			c13.8,0,21.3-13.6,21.3-85.3c0-3.6,1.1-9.2,2.1-14.7C282.05,270,285.15,254,276.35,243.3z"/>
	</g>
</g>
<g>
	<g>
		<path d="M224.85,106.8c-5.4-0.5-10.5,3.3-11.4,8.8c-5.8,33.2-32.1,40.9-51.4,43.8c-3.5,0.5-12.7,1.9-12.7,11.4
			c0,21.4,18.4,21.4,25.3,21.4h6.7c23.5,0,53.3-50.6,53.3-74.7C234.65,111.9,230.35,107.3,224.85,106.8z"/>
	</g>
</g>
<g>
	<g>
		<path d="M276.15,198l-10.7-21.3c-3.6-7.2-15.5-7.2-19.1,0l-10.7,21.3c-2.5,5.3-0.4,11.7,4.9,14.3c5.3,2.6,11.6,0.5,14.3-4.8
			l1.1-2.2l1.1,2.2c1.9,3.8,5.6,5.9,9.5,5.9c1.6,0,3.2-0.4,4.8-1.1C276.65,209.7,278.75,203.3,276.15,198z"/>
	</g>
</g>
<g>
	<g>
		<path d="M349.85,159.4c-19.3-2.9-45.6-10.6-51.4-43.8c-1-5.4-6-9.3-11.4-8.8c-5.5,0.5-9.7,5.1-9.7,10.6c0,24,29.9,74.7,53.3,74.7
			h6.7c5.4,0,11.2-0.2,16.1-3.1c4.2-2.4,9.2-7.6,9.2-18.3C362.65,161.3,353.35,159.9,349.85,159.4z"/>
	</g>
</g>
<g>
	<g>
		<path d="M418.85,354.8l-54.9-19.1c-0.8-0.3-1.5-0.4-2.3-0.5c19-40.9,43.6-101.7,43.6-143.1c0-1.6-0.1-3.4-0.2-5.1
			c0.1-1.8,0.2-3.6,0.2-5.6c0-7.5-1.2-16.1-3.9-24.5C388.55,92.2,343.25,9.1,267.85,1c-4.1-0.7-8.1-1-11.9-1c-3.9,0-7.9,0.3-11.9,1
			c-75.4,8.1-120.7,91.2-133.5,155.9c-2.7,8.4-3.9,17-3.9,24.5c0,1.9,0.1,3.8,0.2,5.6c-0.1,1.7-0.2,3.5-0.2,5.1
			c0,41.4,24.6,102.2,43.7,143.1c-0.8,0.1-1.6,0.3-2.3,0.5l-54.9,19.1c-55.7,19.3-93.1,72-93.1,131v15.7c0,5.9,4.8,10.7,10.7,10.7
			h490.7c5.9,0,10.7-4.8,10.7-10.7v-15.7C511.95,426.8,474.55,374.2,418.85,354.8z M331.05,242.8c-23.9,92.7-56.2,162.7-75,162.7
			c-18.8,0-51.1-69.9-75-162.7c-4.2-16.2-17.3-23.1-28.8-29.3c-14.2-7.4-24.3-12.8-24.3-32.1c0-0.4,0.4-42.7,32-42.7
			c5.9,0,10.7-4.8,10.7-10.7c0-68.7,50.5-106.7,85.3-106.7s85.3,38,85.3,106.7c0,5.9,4.8,10.7,10.7,10.7c31.6,0,32,42.2,32,42.7
			c0,19.2-10.1,24.6-24.1,32.1C348.25,219.6,335.15,226.6,331.05,242.8z"/>
	</g>
</g>
<g>
</g>
<g>
</g>
<g>
</g>
<g>
</g>
<g>
</g>
<g>
</g>
<g>
</g>
<g>
</g>
<g>
</g>
<g>
</g>
<g>
</g>
<g>
</g>
<g>
</g>
<g>
</g>
<g>
</g>
</svg>
